<mxfile host="app.diagrams.net" agent="Mozilla/5.0 (Macintosh; Intel Mac OS X 10_15_7) AppleWebKit/537.36 (KHTML, like Gecko) Chrome/126.0.0.0 Safari/537.36" version="24.7.6">
  <diagram name="Page-1" id="tIgTV2eD88aOBd6M2XpQ">
    <mxGraphModel dx="795" dy="513" grid="1" gridSize="10" guides="1" tooltips="1" connect="1" arrows="1" fold="1" page="1" pageScale="1" pageWidth="827" pageHeight="1169" math="0" shadow="0">
      <root>
        <mxCell id="0" />
        <mxCell id="1" parent="0" />
        <mxCell id="ZDsom8rCQZDnXsp0JqnH-9" value="HIỂN THỊ TIN, BÀI TRÊN GIAO DIỆN BÁO" style="rounded=1;whiteSpace=wrap;html=1;arcSize=40;fontColor=#000000;fillColor=#ffffc0;strokeColor=#ff0000;" vertex="1" parent="1">
          <mxGeometry x="240" y="120" width="247" height="40" as="geometry" />
        </mxCell>
        <mxCell id="ZDsom8rCQZDnXsp0JqnH-12" value="" style="rounded=1;whiteSpace=wrap;html=1;" vertex="1" parent="1">
          <mxGeometry x="303.5" y="200" width="120" height="60" as="geometry" />
        </mxCell>
        <mxCell id="ZDsom8rCQZDnXsp0JqnH-13" value="" style="rounded=1;whiteSpace=wrap;html=1;" vertex="1" parent="1">
          <mxGeometry x="303.5" y="300" width="120" height="60" as="geometry" />
        </mxCell>
        <mxCell id="ZDsom8rCQZDnXsp0JqnH-14" value="" style="rounded=1;whiteSpace=wrap;html=1;" vertex="1" parent="1">
          <mxGeometry x="303.5" y="400" width="120" height="60" as="geometry" />
        </mxCell>
        <mxCell id="ZDsom8rCQZDnXsp0JqnH-15" value="" style="rounded=1;whiteSpace=wrap;html=1;" vertex="1" parent="1">
          <mxGeometry x="303.5" y="500" width="120" height="60" as="geometry" />
        </mxCell>
        <mxCell id="ZDsom8rCQZDnXsp0JqnH-16" value="" style="rounded=1;whiteSpace=wrap;html=1;" vertex="1" parent="1">
          <mxGeometry x="303.5" y="600" width="120" height="60" as="geometry" />
        </mxCell>
        <mxCell id="ZDsom8rCQZDnXsp0JqnH-30" style="edgeStyle=orthogonalEdgeStyle;rounded=0;orthogonalLoop=1;jettySize=auto;html=1;exitX=1;exitY=0;exitDx=0;exitDy=0;entryX=0;entryY=0.5;entryDx=0;entryDy=0;" edge="1" parent="1" source="ZDsom8rCQZDnXsp0JqnH-17" target="ZDsom8rCQZDnXsp0JqnH-16">
          <mxGeometry relative="1" as="geometry" />
        </mxCell>
        <mxCell id="ZDsom8rCQZDnXsp0JqnH-17" value="Use Case" style="ellipse;whiteSpace=wrap;html=1;" vertex="1" parent="1">
          <mxGeometry x="80" y="690" width="140" height="70" as="geometry" />
        </mxCell>
        <mxCell id="ZDsom8rCQZDnXsp0JqnH-18" value="Use Case" style="ellipse;whiteSpace=wrap;html=1;" vertex="1" parent="1">
          <mxGeometry x="293.5" y="720" width="140" height="70" as="geometry" />
        </mxCell>
        <mxCell id="ZDsom8rCQZDnXsp0JqnH-19" value="Use Case" style="ellipse;whiteSpace=wrap;html=1;" vertex="1" parent="1">
          <mxGeometry x="500" y="690" width="140" height="70" as="geometry" />
        </mxCell>
        <mxCell id="ZDsom8rCQZDnXsp0JqnH-20" value="Use Case" style="ellipse;whiteSpace=wrap;html=1;" vertex="1" parent="1">
          <mxGeometry x="80.5" y="830" width="140" height="70" as="geometry" />
        </mxCell>
        <mxCell id="ZDsom8rCQZDnXsp0JqnH-21" value="Use Case" style="ellipse;whiteSpace=wrap;html=1;" vertex="1" parent="1">
          <mxGeometry x="294" y="861" width="140" height="70" as="geometry" />
        </mxCell>
        <mxCell id="ZDsom8rCQZDnXsp0JqnH-22" value="Use Case" style="ellipse;whiteSpace=wrap;html=1;" vertex="1" parent="1">
          <mxGeometry x="500.5" y="831" width="140" height="70" as="geometry" />
        </mxCell>
        <mxCell id="ZDsom8rCQZDnXsp0JqnH-23" value="" style="endArrow=classic;html=1;rounded=0;exitX=0.5;exitY=0;exitDx=0;exitDy=0;" edge="1" parent="1" source="ZDsom8rCQZDnXsp0JqnH-12" target="ZDsom8rCQZDnXsp0JqnH-9">
          <mxGeometry width="50" height="50" relative="1" as="geometry">
            <mxPoint x="490" y="410" as="sourcePoint" />
            <mxPoint x="540" y="360" as="targetPoint" />
          </mxGeometry>
        </mxCell>
        <mxCell id="ZDsom8rCQZDnXsp0JqnH-24" value="" style="endArrow=classic;html=1;rounded=0;exitX=0.5;exitY=0;exitDx=0;exitDy=0;entryX=0.5;entryY=1;entryDx=0;entryDy=0;" edge="1" parent="1" source="ZDsom8rCQZDnXsp0JqnH-13" target="ZDsom8rCQZDnXsp0JqnH-12">
          <mxGeometry width="50" height="50" relative="1" as="geometry">
            <mxPoint x="364" y="300" as="sourcePoint" />
            <mxPoint x="364" y="260" as="targetPoint" />
          </mxGeometry>
        </mxCell>
        <mxCell id="ZDsom8rCQZDnXsp0JqnH-25" value="" style="endArrow=classic;html=1;rounded=0;exitX=0.5;exitY=0;exitDx=0;exitDy=0;" edge="1" parent="1">
          <mxGeometry width="50" height="50" relative="1" as="geometry">
            <mxPoint x="364" y="400" as="sourcePoint" />
            <mxPoint x="364" y="360" as="targetPoint" />
          </mxGeometry>
        </mxCell>
        <mxCell id="ZDsom8rCQZDnXsp0JqnH-26" value="" style="endArrow=classic;html=1;rounded=0;exitX=0.5;exitY=0;exitDx=0;exitDy=0;entryX=0.5;entryY=1;entryDx=0;entryDy=0;" edge="1" parent="1">
          <mxGeometry width="50" height="50" relative="1" as="geometry">
            <mxPoint x="364" y="500" as="sourcePoint" />
            <mxPoint x="364" y="460" as="targetPoint" />
          </mxGeometry>
        </mxCell>
        <mxCell id="ZDsom8rCQZDnXsp0JqnH-27" value="" style="endArrow=classic;html=1;rounded=0;exitX=0.5;exitY=0;exitDx=0;exitDy=0;entryX=0.5;entryY=1;entryDx=0;entryDy=0;" edge="1" parent="1">
          <mxGeometry width="50" height="50" relative="1" as="geometry">
            <mxPoint x="364" y="600" as="sourcePoint" />
            <mxPoint x="364" y="560" as="targetPoint" />
          </mxGeometry>
        </mxCell>
        <mxCell id="ZDsom8rCQZDnXsp0JqnH-28" value="" style="endArrow=classic;html=1;rounded=0;exitX=0.5;exitY=0;exitDx=0;exitDy=0;" edge="1" parent="1" source="ZDsom8rCQZDnXsp0JqnH-18">
          <mxGeometry width="50" height="50" relative="1" as="geometry">
            <mxPoint x="363.4" y="700" as="sourcePoint" />
            <mxPoint x="363.2" y="660" as="targetPoint" />
          </mxGeometry>
        </mxCell>
        <mxCell id="ZDsom8rCQZDnXsp0JqnH-29" value="" style="endArrow=classic;html=1;rounded=0;exitX=0.5;exitY=0;exitDx=0;exitDy=0;entryX=0.5;entryY=1;entryDx=0;entryDy=0;" edge="1" parent="1" source="ZDsom8rCQZDnXsp0JqnH-21" target="ZDsom8rCQZDnXsp0JqnH-18">
          <mxGeometry width="50" height="50" relative="1" as="geometry">
            <mxPoint x="374" y="730" as="sourcePoint" />
            <mxPoint x="373.2" y="670" as="targetPoint" />
          </mxGeometry>
        </mxCell>
        <mxCell id="ZDsom8rCQZDnXsp0JqnH-34" value="" style="endArrow=none;html=1;rounded=0;exitX=1;exitY=0.5;exitDx=0;exitDy=0;entryX=0;entryY=0.5;entryDx=0;entryDy=0;" edge="1" parent="1" source="ZDsom8rCQZDnXsp0JqnH-21" target="ZDsom8rCQZDnXsp0JqnH-22">
          <mxGeometry width="50" height="50" relative="1" as="geometry">
            <mxPoint x="440" y="870" as="sourcePoint" />
            <mxPoint x="483.5" y="850" as="targetPoint" />
          </mxGeometry>
        </mxCell>
        <mxCell id="ZDsom8rCQZDnXsp0JqnH-36" value="" style="endArrow=none;html=1;rounded=0;exitX=1;exitY=0.5;exitDx=0;exitDy=0;entryX=0;entryY=0.5;entryDx=0;entryDy=0;" edge="1" parent="1" source="ZDsom8rCQZDnXsp0JqnH-20" target="ZDsom8rCQZDnXsp0JqnH-21">
          <mxGeometry width="50" height="50" relative="1" as="geometry">
            <mxPoint x="480" y="820" as="sourcePoint" />
            <mxPoint x="290" y="890" as="targetPoint" />
          </mxGeometry>
        </mxCell>
        <mxCell id="ZDsom8rCQZDnXsp0JqnH-37" value="" style="endArrow=classic;html=1;rounded=0;entryX=0.5;entryY=1;entryDx=0;entryDy=0;exitX=0.5;exitY=0;exitDx=0;exitDy=0;" edge="1" parent="1" source="ZDsom8rCQZDnXsp0JqnH-22" target="ZDsom8rCQZDnXsp0JqnH-19">
          <mxGeometry width="50" height="50" relative="1" as="geometry">
            <mxPoint x="480" y="820" as="sourcePoint" />
            <mxPoint x="530" y="770" as="targetPoint" />
          </mxGeometry>
        </mxCell>
        <mxCell id="ZDsom8rCQZDnXsp0JqnH-38" value="" style="endArrow=classic;html=1;rounded=0;entryX=0.5;entryY=1;entryDx=0;entryDy=0;exitX=0.5;exitY=0;exitDx=0;exitDy=0;" edge="1" parent="1" source="ZDsom8rCQZDnXsp0JqnH-20" target="ZDsom8rCQZDnXsp0JqnH-17">
          <mxGeometry width="50" height="50" relative="1" as="geometry">
            <mxPoint x="480" y="820" as="sourcePoint" />
            <mxPoint x="530" y="770" as="targetPoint" />
          </mxGeometry>
        </mxCell>
        <mxCell id="ZDsom8rCQZDnXsp0JqnH-41" value="" style="endArrow=classic;html=1;rounded=0;entryX=0.75;entryY=1;entryDx=0;entryDy=0;exitX=0;exitY=0.5;exitDx=0;exitDy=0;" edge="1" parent="1" source="ZDsom8rCQZDnXsp0JqnH-19" target="ZDsom8rCQZDnXsp0JqnH-16">
          <mxGeometry width="50" height="50" relative="1" as="geometry">
            <mxPoint x="370" y="820" as="sourcePoint" />
            <mxPoint x="420" y="770" as="targetPoint" />
          </mxGeometry>
        </mxCell>
        <mxCell id="ZDsom8rCQZDnXsp0JqnH-42" value="" style="endArrow=classic;html=1;rounded=0;entryX=0;entryY=0;entryDx=0;entryDy=0;exitX=1.001;exitY=0.644;exitDx=0;exitDy=0;exitPerimeter=0;" edge="1" parent="1" source="ZDsom8rCQZDnXsp0JqnH-16" target="ZDsom8rCQZDnXsp0JqnH-19">
          <mxGeometry width="50" height="50" relative="1" as="geometry">
            <mxPoint x="370" y="820" as="sourcePoint" />
            <mxPoint x="420" y="770" as="targetPoint" />
          </mxGeometry>
        </mxCell>
        <mxCell id="ZDsom8rCQZDnXsp0JqnH-43" value="" style="endArrow=classic;html=1;rounded=0;entryX=1;entryY=0;entryDx=0;entryDy=0;exitX=1;exitY=1;exitDx=0;exitDy=0;" edge="1" parent="1" source="ZDsom8rCQZDnXsp0JqnH-19" target="ZDsom8rCQZDnXsp0JqnH-22">
          <mxGeometry width="50" height="50" relative="1" as="geometry">
            <mxPoint x="520" y="700" as="sourcePoint" />
            <mxPoint x="570" y="650" as="targetPoint" />
          </mxGeometry>
        </mxCell>
      </root>
    </mxGraphModel>
  </diagram>
</mxfile>
